<?xml version="1.0" encoding="UTF-8"?>
<svg xmlns="http://www.w3.org/2000/svg" xmlns:xlink="http://www.w3.org/1999/xlink" version="1.1" viewBox="0 0 271.1 59.2">
  <defs>
    <style>
      .cls-1 {
        fill: url(#linear-gradient-2);
      }

      .cls-1, .cls-2, .cls-3, .cls-4, .cls-5, .cls-6, .cls-7, .cls-8, .cls-9 {
        stroke-width: 0px;
      }

      .cls-1, .cls-2, .cls-3, .cls-10 {
        display: none;
      }

      .cls-2 {
        fill: url(#linear-gradient-3);
      }

      .cls-3 {
        fill: url(#linear-gradient);
      }

      .cls-4 {
        fill: #414042;
      }

      .cls-5 {
        fill: url(#linear-gradient-4);
      }

      .cls-6 {
        fill: url(#linear-gradient-8);
      }

      .cls-7 {
        fill: url(#linear-gradient-7);
      }

      .cls-8 {
        fill: url(#linear-gradient-5);
      }

      .cls-9 {
        fill: url(#linear-gradient-6);
      }
    </style>
    <linearGradient id="linear-gradient" x1="184" y1="19.6" x2="273.1" y2="19.6" gradientUnits="userSpaceOnUse">
      <stop offset="0" stop-color="#2096d1"/>
      <stop offset="1" stop-color="#525eaa"/>
    </linearGradient>
    <linearGradient id="linear-gradient-2" y1="30.3" x2="273.1" y2="30.3" xlink:href="#linear-gradient"/>
    <linearGradient id="linear-gradient-3" x1="184" y1="31.5" x2="273.1" y2="31.5" xlink:href="#linear-gradient"/>
    <linearGradient id="linear-gradient-4" x1="184" y1="29.6" x2="273.1" y2="29.6" xlink:href="#linear-gradient"/>
    <linearGradient id="linear-gradient-5" x1="183.2" y1="29.6" x2="272.4" y2="29.6" xlink:href="#linear-gradient"/>
    <linearGradient id="linear-gradient-6" x1="181.9" y1="29" x2="286.4" y2="29" gradientUnits="userSpaceOnUse">
      <stop offset="0" stop-color="#3c98d3"/>
      <stop offset="1" stop-color="#595aa8"/>
    </linearGradient>
    <linearGradient id="linear-gradient-7" x2="286.4" xlink:href="#linear-gradient-6"/>
    <linearGradient id="linear-gradient-8" x1="185.2" y1="30.8" x2="285.9" y2="30.8" xlink:href="#linear-gradient"/>
  </defs>
  <g id="Layer_1" data-name="Layer 1">
    <path class="cls-4" d="M38.1,59.2L8.8,13.4h-.2v45.8H0V0h9.4l28.8,45h.2V0h8.6v59.2h-9Z"/>
    <path class="cls-4" d="M52.9,59.2V0h33.9v7.9h-25.2v17.4h21.3v7.9h-21.3v18h25.2v7.9h-33.9Z"/>
    <path class="cls-4" d="M126.5,59.2l-14.7-22.6-14.9,22.6h-10.1l19.6-29.7L86.8,0h10.3l14.6,22.4L126.6,0h10.2l-19.8,29.5,19.6,29.7h-10.2Z"/>
    <path class="cls-4" d="M156.4,59.2V7.9h-15.7V0h40v7.9h-15.7v51.3h-8.6Z"/>
    <g>
      <path class="cls-3" d="M213.7,11.7c-1-1.1-2.1-1.9-3.5-2.5-1.4-.6-2.9-.9-4.5-.9-3.3,0-6,1.1-8,3.2-2,2.1-3,4.9-3,8.3s.3,3.1.8,4.5c.5,1.4,1.3,2.6,2.2,3.5,1,1,2.1,1.7,3.5,2.3,1.3.6,2.8.9,4.4.9s3.1-.3,4.5-.8,2.6-1.3,3.6-2.3c1-1,1.8-2.2,2.3-3.6.5-1.4.8-3,.8-4.6s-.3-3-.8-4.3c-.5-1.4-1.3-2.6-2.2-3.6Z"/>
      <path class="cls-1" d="M260.1,16.3c-.7-2.3-1.8-4.2-3.1-5.7-1.4-1.5-3.1-2.3-5.3-2.3s-4,.8-5.4,2.3c-1.4,1.5-2.4,3.5-3.1,5.7-.7,2.3-1.2,4.7-1.5,7.2-.3,2.5-.4,4.8-.4,6.8s.1,4.3.4,6.8c.3,2.5.8,4.9,1.5,7.1.7,2.2,1.8,4.1,3.1,5.6,1.4,1.5,3.1,2.3,5.4,2.3s3.9-.8,5.3-2.3c1.4-1.5,2.4-3.4,3.1-5.6.7-2.2,1.2-4.6,1.5-7.1.2-2.5.4-4.8.4-6.8s-.1-4.3-.4-6.8c-.2-2.5-.7-5-1.5-7.2Z"/>
      <path class="cls-2" d="M184-1.6v66.2h89.2V-1.6h-89.2ZM226.2,24.5c-.3,1.4-.7,2.8-1.2,4.1-.5,1.3-1.1,2.7-1.9,4-.7,1.4-1.6,2.8-2.5,4.2l-14.4,22.3h-11.9l14.8-21.4h0c-.8.3-1.8.6-3,.7-1.2.2-2.2.2-3.2.2-2.5,0-4.9-.5-7.1-1.4-2.2-.9-4.2-2.2-5.8-3.9-1.7-1.7-3-3.6-3.9-5.8-.9-2.2-1.4-4.7-1.4-7.3s.5-5.8,1.6-8.3c1.1-2.5,2.6-4.6,4.4-6.4,1.9-1.8,4.1-3.1,6.7-4.1,2.6-.9,5.3-1.4,8.2-1.4s5.8.5,8.3,1.5c2.6,1,4.8,2.4,6.7,4.2,1.9,1.8,3.4,3.9,4.4,6.3,1.1,2.4,1.6,5,1.6,7.8s-.1,3.2-.4,4.6ZM270.5,42.9c-.9,3.7-2.2,6.9-3.9,9.5s-3.8,4.6-6.3,6c-2.5,1.4-5.4,2.1-8.7,2.1s-6.1-.7-8.7-2.1c-2.5-1.4-4.7-3.4-6.4-6-1.7-2.6-3-5.8-3.9-9.5-.9-3.7-1.3-7.9-1.3-12.6s.4-8.9,1.3-12.6c.9-3.7,2.2-6.9,3.9-9.5,1.7-2.6,3.9-4.6,6.4-6,2.5-1.4,5.4-2.1,8.7-2.1s6.1.7,8.7,2.1c2.5,1.4,4.6,3.4,6.3,6s3,5.8,3.9,9.5c.9,3.7,1.3,7.9,1.3,12.6s-.4,8.9-1.3,12.6Z"/>
      <path class="cls-5" d="M220.6,5.8c-1.9-1.8-4.1-3.2-6.7-4.2-2.6-1-5.3-1.5-8.3-1.5s-5.7.5-8.2,1.4c-2.6.9-4.8,2.3-6.7,4.1-1.9,1.8-3.3,3.9-4.4,6.4-1.1,2.5-1.6,5.3-1.6,8.3s.5,5,1.4,7.3c.9,2.2,2.3,4.2,3.9,5.8,1.7,1.7,3.6,3,5.8,3.9,2.2.9,4.6,1.4,7.1,1.4s2,0,3.2-.2c1.2-.2,2.2-.4,3-.8h0c0,0-14.8,21.4-14.8,21.4h11.9l14.4-22.3c.9-1.5,1.7-2.9,2.5-4.2.7-1.4,1.4-2.7,1.9-4,.5-1.3.9-2.7,1.2-4.1.3-1.4.4-3,.4-4.6,0-2.8-.5-5.3-1.6-7.8-1.1-2.4-2.5-4.5-4.4-6.3ZM215.9,24.3c-.5,1.4-1.3,2.6-2.3,3.6-1,1-2.2,1.8-3.6,2.3s-2.9.8-4.5.8-3.1-.3-4.4-.9c-1.3-.6-2.5-1.3-3.5-2.3-1-1-1.7-2.2-2.2-3.5-.5-1.4-.8-2.9-.8-4.5,0-3.4,1-6.2,3-8.3,2-2.1,4.7-3.2,8-3.2s3.2.3,4.5.9c1.4.6,2.5,1.5,3.5,2.5,1,1.1,1.7,2.3,2.2,3.6.5,1.4.8,2.8.8,4.3s-.3,3.2-.8,4.6Z"/>
      <path class="cls-8" d="M265.9,8.1c-1.7-2.5-3.8-4.5-6.3-5.9-2.5-1.4-5.4-2.1-8.7-2.1s-6.1.7-8.7,2.1c-2.5,1.4-4.7,3.3-6.4,5.9-1.7,2.5-3,5.6-3.9,9.3-.9,3.6-1.3,7.7-1.3,12.3s.4,8.6,1.3,12.3c.9,3.6,2.2,6.7,3.9,9.3,1.7,2.5,3.9,4.5,6.4,5.9,2.5,1.4,5.4,2.1,8.7,2.1s6.1-.7,8.7-2.1c2.5-1.4,4.6-3.3,6.3-5.9s3-5.6,3.9-9.3c.9-3.6,1.3-7.7,1.3-12.3s-.4-8.6-1.3-12.3c-.9-3.6-2.2-6.7-3.9-9.3ZM260.8,36.3c-.2,2.5-.7,4.8-1.5,7-.7,2.2-1.8,4-3.1,5.5-1.4,1.5-3.1,2.3-5.3,2.3s-4-.8-5.4-2.3c-1.4-1.5-2.4-3.3-3.1-5.5-.7-2.2-1.2-4.5-1.5-7-.3-2.5-.4-4.7-.4-6.7s.1-4.2.4-6.7c.3-2.5.8-4.8,1.5-7.1.7-2.2,1.8-4.1,3.1-5.6,1.4-1.5,3.1-2.3,5.4-2.3s3.9.8,5.3,2.3c1.4,1.5,2.4,3.4,3.1,5.6.7,2.2,1.2,4.6,1.5,7.1.2,2.5.4,4.7.4,6.7s-.1,4.2-.4,6.7Z"/>
    </g>
    <g class="cls-10">
      <path class="cls-9" d="M208.8-4.2c-12.4,0-22.4,10.3-22.4,23.3s9,22,21,22,1.4,0,3.9-.4l-13.8,21.4h10.8l17.6-27.8c4.1-6.5,5.5-11.4,5.5-16.4,0-10.1-8.3-22.2-22.6-22.2ZM208.8,32.8c-7.5,0-13.2-6.9-13.2-14.5s5.8-14.1,13.2-14.1,13.5,6.8,13.5,14.7-6.2,13.9-13.5,13.9Z"/>
      <path class="cls-7" d="M261.5-4.8c-10.8,0-21.3,7.9-21.3,21.7v24.2c0,14.6,11.2,21.7,21,21.7s21.2-6.6,21.2-20.9v-25.7c0-11.5-9-21.1-20.9-21.1ZM273.2,42.5c0,7.5-6.1,12.1-11.9,12.1s-12-6.3-12-13.8v-24.4c0-7,4.3-12.8,12-12.8s11.9,6.3,11.9,12.8v26.1Z"/>
    </g>
  </g>
  <g id="Layer_2" data-name="Layer 2" class="cls-10">
    <rect class="cls-6" x="185.2" y="-6.6" width="100.7" height="74.8"/>
  </g>
</svg>