<svg xmlns="http://www.w3.org/2000/svg" viewBox="0 0 32 32" fill="currentColor">
  <path d="M27,16.76V15.24l1.92-1.68A2,2,0,0,0,29.3,11L27.22,7A2,2,0,0,0,25,5.9l-2.47.6a12,12,0,0,0-1.32-.76L20.7,3.27A2,2,0,0,0,18.73,2H13.27a2,2,0,0,0-2,1.27L10.79,5.74a12,12,0,0,0-1.32.76L7,5.9A2,2,0,0,0,4.78,7L2.7,11a2,2,0,0,0,.38,2.56l1.92,1.68v1.52L3.08,18.44A2,2,0,0,0,2.7,21l2.08,4a2,2,0,0,0,2.22,1.1l2.47-.6a12,12,0,0,0,1.32.76l.48,2.47A2,2,0,0,0,13.27,30h5.46a2,2,0,0,0,2-1.27l.48-2.47a12,12,0,0,0,1.32-.76l2.47.6A2,2,0,0,0,27.22,25l2.08-4a2,2,0,0,0-.38-2.56ZM13.27,28l-.48-2.47a1,1,0,0,0-.6-.7,10,10,0,0,1-2.1-1.21,1,1,0,0,0-.9-.18L6.73,24l-2.08-4,1.92-1.68a1,1,0,0,0,.32-.86,8,8,0,0,1,0-2.84,1,1,0,0,0-.32-.86L4.65,12l2.08-4,2.46.6a1,1,0,0,0,.9-.18,10,10,0,0,1,2.1-1.21,1,1,0,0,0,.6-.7L13.27,4h5.46l.48,2.47a1,1,0,0,0,.6.7,10,10,0,0,1,2.1,1.21,1,1,0,0,0,.9.18L25.27,8l2.08,4-1.92,1.68a1,1,0,0,0-.32.86,8,8,0,0,1,0,2.84,1,1,0,0,0,.32.86L27.35,20l-2.08,4-2.46-.6a1,1,0,0,0-.9.18,10,10,0,0,1-2.1,1.21,1,1,0,0,0-.6.7L18.73,28Z"/>
  <path d="M16,22a6,6,0,1,1,6-6A6,6,0,0,1,16,22Zm0-10a4,4,0,1,0,4,4A4,4,0,0,0,16,12Z"/>
</svg>
